<svg xmlns="http://www.w3.org/2000/svg" viewBox="0 0 24 24" width="24" height="24" aria-hidden="true">
  <path fill="#888888" d="M24 4.557a9.83 9.83 0 0 1-2.828.775 4.932 4.932 0 0 0 2.165-2.724 9.864 9.864 0 0 1-3.127 1.195A4.92 4.92 0 0 0 16.616 3c-2.724 0-4.932 2.208-4.932 4.932 0 .386.043.762.127 1.124C7.728 8.89 4.1 6.92 1.671 3.905a4.93 4.93 0 0 0-.667 2.48c0 1.71.87 3.213 2.188 4.096a4.904 4.904 0 0 1-2.234-.616v.062c0 2.387 1.698 4.377 3.95 4.83a4.935 4.935 0 0 1-2.224.085c.627 1.956 2.445 3.38 4.6 3.42A9.87 9.87 0 0 1 0 19.54a13.94 13.94 0 0 0 7.548 2.212c9.056 0 14.01-7.508 14.01-14.01 0-.213-.004-.425-.014-.636A10.012 10.012 0 0 0 24 4.557z"/>
</svg>

